<svg xmlns="http://www.w3.org/2000/svg" xmlns:xlink="http://www.w3.org/1999/xlink" aria-hidden="true" role="img" class="iconify iconify--logos" width="35.93" height="32" preserveAspectRatio="xMidYMid meet" viewBox="0 0 256 228"><path fill="#00D8FF" d="M210.483 73.824a171.49 171.49 0 0 0-8.24-2.597c.465-1.9.893-3.777 1.273-5.621c6.238-30.281 2.16-54.676-11.769-62.708c-13.355-7.7-35.196.329-57.254 19.526a171.23 171.23 0 0 0-6.375 5.848a155.866 155.866 0 0 0-4.241-3.917C100.759 3.829 77.587-4.822 63.673 3.233C50.33 10.957 46.379 33.89 51.995 62.588a170.974 170.974 0 0 0 1.892 8.48c-3.28.932-6.445 1.924-9.474 2.98C17.309 83.498 0 98.307 0 113.668c0 15.865 18.582 31.778 46.812 41.427a145.52 145.52 0 0 0 6.921 2.165a167.467 167.467 0 0 0-2.01 9.138c-5.354 28.2-1.173 50.591 12.134 58.266c13.744 7.926 36.812-.22 59.273-19.855a145.567 145.567 0 0 0 5.342-4.923a168.064 168.064 0 0 0 6.92 6.314c21.758 18.722 43.246 26.282 56.54 18.586c13.731-7.949 18.194-32.003 12.4-61.268a145.016 145.016 0 0 0-1.535-6.842c1.62-.48 3.21-.974 4.76-1.488c29.348-9.723 48.443-25.443 48.443-41.52c0-15.417-17.861-30.326-45.648-41.36Zm-11.321 83.141c-1.56.474-3.158.913-4.76 1.329c-4.943-16.586-12.16-34.336-21.32-52.458c9.256-18.03 16.672-35.79 21.703-52.428c2.426.672 4.806 1.374 7.12 2.11c23.902 7.761 38.365 20.224 38.365 31.953c0 12.318-15.634 25.08-40.008 33.494Zm-57.08-14.07c-9.84-17.032-20.196-32.94-30.864-47.344c10.524-14.304 20.874-30.28 30.68-47.228c10.612.234 21.252.734 31.832 1.49c10.406 16.98 20.584 33.313 30.344 48.734c-9.65 15.41-19.86 31.732-30.344 48.762c-10.52.76-21.182 1.265-31.648 1.5Zm-60.292-83.178a327.835 327.835 0 0 1 1.76-4.76c9.65 16.108 19.93 32.62 30.564 48.582c-9.8 16.566-20.08 33.08-29.732 49.188a323.14 323.14 0 0 1-6.068-4.102c-24.004-16.894-39.038-33.696-39.038-45.086c0-11.62 15.304-28.447 39.514-45.822ZM128.5 156.74c-7.102-12.254-14.152-25.076-21.116-38.24c7.052.282 14.092.422 21.116.422c7.168 0 14.334-.152 21.48-.422c-6.936 13.195-14.02 26.078-21.48 38.24Zm33.608-18.392c9.252-15.992 18.288-32.084 26.98-48.09c8.704 16.01 17.74 32.11 27.002 48.094a330.077 330.077 0 0 1-26.998 48.088a330.63 330.63 0 0 1-26.984-48.092Zm52.198-57.586c9.456-16.09 18.052-32.624 25.608-49.188a323.217 323.217 0 0 1 6.02 4.128c24.206 17.375 39.514 34.202 39.514 45.822c0 11.39-15.034 28.192-39.038 45.086a324.85 324.85 0 0 1-6.068 4.102c-7.61-16.434-16.252-33.008-26.036-49.15Zm25.254-77.912c-13.602-7.85-35.163-.218-56.59 18.584a145.27 145.27 0 0 0-5.342 4.923a168.467 168.467 0 0 0-6.92-6.314c21.94-19.473 43.98-27.638 57.673-19.848c13.797 7.887 17.964 32.332 12.18 61.96a145.016 145.016 0 0 0 1.535 6.842c-1.62.514-3.154 1.008-4.76 1.488c-5.032-16.638-12.448-34.398-21.696-52.434ZM127.343 78.515c5.318 0 10.688.152 16.06.45c-8.986 15.61-18.252 30.566-27.864 44.942c-9.382-14.2-18.316-28.764-27.228-44.922c5.284-.284 10.54-.47 15.832-.47Zm-58.008 11.783c7.458 17.118 15.216 33.676 23.228 49.418c-16.596 2.904-32.582 6.458-47.582 10.598a327.452 327.452 0 0 1-1.894-8.48c-5.576-28.5-1.714-51.077 11.768-58.87a171.49 171.49 0 0 1 8.48-2.666Zm-9.482 88.38c5.162-1.372 10.543-2.662 16.078-3.866c7.426 15.222 15.218 29.932 23.306 43.87a171.252 171.252 0 0 1-6.375-5.848c-22.406-19.482-44.502-27.58-57.736-19.928c-12.467 7.285-16.19 28.065-11.645 54.565a323.978 323.978 0 0 1-1.716-8.82c-4.596-22.318-2.286-42.016 6.088-50.874Zm91.56 0c22.094 19.27 45.338 27.178 58.906 19.067c12.94-7.922 17.35-28.533 13.632-54.504a323.85 323.85 0 0 1 1.714 8.866c4.914 26.564.992 48.32-12.18 56.352c-13.355 7.7-35.196-.329-57.254-19.526a171.23 171.23 0 0 1-6.375-5.848a155.866 155.866 0 0 0 4.241-3.917c8.428-13.946 16.385-28.343 23.644-43.864c5.535 1.204 10.916 2.494 16.078 3.866Z"></path><path fill="#00D8FF" d="M127.552 167.666c13.302 0 24.08-10.71 24.08-23.91s-10.778-23.91-24.08-23.91c-13.3 0-24.078 10.71-24.078 23.91s10.778 23.91 24.078 23.91Z"></path></svg>
